<svg xmlns="http://www.w3.org/2000/svg" width="151" height="40" fill="none"><g clip-path="url(#a)"><path fill="#192657" d="M1.658 28.947V10.64l9.214 5.086v8.188l7.371 4.119 7.371-4.12v-8.187l9.214-5.086v18.308l-16.585 9.154-16.585-9.154Z"/><path fill="url(#b)" fill-rule="evenodd" d="M6.265 13.182 1.658 10.64l16.585-9.154 16.585 9.154-4.607 2.543V26.66l-11.978 6.865L6.265 26.66V13.182Zm23.457.276-4.108 2.267v-.05l-7.371-4.12-7.371 4.12v.05l-4.108-2.267v12.92l11.479 6.578 11.479-6.579v-12.92Z" clip-rule="evenodd"/><path fill="#192657" d="M43.659 27.5V12.122h2.919v12.742h7.076V27.5h-9.995ZM59.956 27.808c-1.09 0-2.071-.22-2.941-.66a4.962 4.962 0 0 1-2.056-1.91c-.502-.835-.753-1.839-.753-3.01v-.352c0-1.172.251-2.175.752-3.01a4.962 4.962 0 0 1 2.057-1.91c.87-.44 1.85-.66 2.941-.66 1.091 0 2.071.22 2.941.66a4.962 4.962 0 0 1 2.057 1.91c.5.835.752 1.838.752 3.01v.352c0 1.171-.251 2.175-.752 3.01a4.962 4.962 0 0 1-2.057 1.91c-.87.44-1.85.66-2.941.66Zm0-2.46c.855 0 1.563-.272 2.123-.813.56-.557.84-1.348.84-2.373v-.22c0-1.025-.28-1.809-.84-2.35-.546-.557-1.253-.835-2.123-.835-.855 0-1.563.278-2.123.834-.56.542-.84 1.326-.84 2.351v.22c0 1.025.28 1.816.84 2.373.56.541 1.268.812 2.123.812ZM66.752 22.096v-.352c0-1.142.228-2.116.685-2.922.457-.82 1.062-1.442 1.813-1.867.767-.44 1.6-.659 2.5-.659 1.002 0 1.761.176 2.277.527.516.352.892.718 1.128 1.099h.398v-1.319h2.742v12.83c0 .748-.221 1.34-.664 1.78-.442.454-1.032.681-1.769.681h-7.341v-2.416h6.368c.413 0 .62-.22.62-.66v-2.834h-.399a3.773 3.773 0 0 1-.619.725c-.265.235-.619.433-1.061.594-.442.16-1.003.241-1.68.241a5.07 5.07 0 0 1-2.5-.637c-.751-.44-1.356-1.062-1.813-1.867-.457-.82-.685-1.802-.685-2.944Zm5.793 3.032c.855 0 1.57-.271 2.145-.813.575-.542.863-1.304.863-2.285v-.22c0-.996-.288-1.757-.863-2.284-.56-.542-1.275-.813-2.145-.813-.855 0-1.57.27-2.145.813-.575.527-.862 1.288-.862 2.284v.22c0 .981.287 1.743.862 2.285s1.29.813 2.145.813ZM85.608 27.808c-1.091 0-2.072-.22-2.942-.66a4.962 4.962 0 0 1-2.056-1.91c-.501-.835-.752-1.839-.752-3.01v-.352c0-1.172.25-2.175.752-3.01a4.962 4.962 0 0 1 2.056-1.91c.87-.44 1.85-.66 2.942-.66 1.09 0 2.07.22 2.94.66a4.962 4.962 0 0 1 2.057 1.91c.501.835.752 1.838.752 3.01v.352c0 1.171-.25 2.175-.752 3.01a4.962 4.962 0 0 1-2.056 1.91c-.87.44-1.85.66-2.941.66Zm0-2.46c.855 0 1.562-.272 2.123-.813.56-.557.84-1.348.84-2.373v-.22c0-1.025-.28-1.809-.84-2.35-.546-.557-1.253-.835-2.123-.835-.855 0-1.563.278-2.123.834-.56.542-.84 1.326-.84 2.351v.22c0 1.025.28 1.816.84 2.373.56.541 1.268.812 2.123.812ZM92.934 27.5V16.603h2.786V27.5h-2.786Zm1.393-12.17c-.501 0-.929-.162-1.283-.484-.339-.322-.508-.747-.508-1.274 0-.528.17-.952.508-1.275a1.838 1.838 0 0 1 1.283-.483c.516 0 .944.161 1.283.483.339.323.508.747.508 1.275 0 .527-.17.952-.508 1.274-.34.322-.767.483-1.283.483ZM97.813 31.894v-15.29h2.742v1.318h.398c.25-.425.641-.799 1.172-1.12.531-.338 1.29-.506 2.278-.506.884 0 1.702.22 2.454.66.752.424 1.356 1.053 1.813 1.888.457.835.686 1.846.686 3.032v.352c0 1.186-.229 2.197-.686 3.031-.457.835-1.061 1.472-1.813 1.912a4.905 4.905 0 0 1-2.454.637c-.664 0-1.224-.08-1.681-.242-.443-.146-.804-.337-1.083-.571a4.1 4.1 0 0 1-.642-.747h-.398v5.646h-2.786Zm5.749-6.503c.87 0 1.585-.27 2.145-.813.575-.556.862-1.362.862-2.416v-.22c0-1.054-.287-1.853-.862-2.395-.575-.556-1.29-.834-2.145-.834s-1.57.278-2.145.834c-.575.542-.862 1.34-.862 2.395v.22c0 1.054.287 1.86.862 2.416.575.542 1.29.813 2.145.813ZM115.474 27.808c-1.43 0-2.602-.308-3.516-.923-.913-.615-1.466-1.494-1.659-2.636l2.566-.66c.103.513.273.916.508 1.21.251.292.554.504.908.636.367.117.766.176 1.193.176.649 0 1.128-.11 1.438-.33.309-.234.464-.52.464-.856a.843.843 0 0 0-.442-.77c-.294-.19-.766-.344-1.416-.46l-.618-.11a11.775 11.775 0 0 1-2.101-.594c-.634-.263-1.143-.622-1.527-1.076-.382-.454-.574-1.04-.574-1.758 0-1.084.398-1.911 1.194-2.482.796-.586 1.843-.879 3.14-.879 1.224 0 2.241.271 3.051.813.812.542 1.342 1.252 1.593 2.13l-2.587.792c-.118-.557-.361-.952-.73-1.187-.354-.234-.796-.351-1.327-.351-.531 0-.936.095-1.216.286a.834.834 0 0 0-.42.747c0 .351.147.615.442.79.295.161.693.286 1.194.374l.619.11c.826.146 1.57.344 2.234.593.678.234 1.209.578 1.592 1.032.398.44.597 1.04.597 1.802 0 1.142-.42 2.028-1.261 2.658-.825.615-1.938.923-3.339.923ZM125.7 27.676c-.855 0-1.607-.19-2.255-.571a4.066 4.066 0 0 1-1.482-1.626c-.353-.688-.531-1.48-.531-2.373v-6.503h2.787v6.284c0 .82.199 1.435.597 1.845.412.41.994.615 1.747.615.854 0 1.518-.278 1.99-.835.472-.57.707-1.362.707-2.372v-5.537h2.787V27.5h-2.743v-1.428h-.397c-.178.367-.509.725-.996 1.077-.486.351-1.224.527-2.211.527ZM134.152 27.5V16.604h2.742v1.186h.398c.191-.366.509-.681.951-.945.442-.278 1.025-.417 1.747-.417.781 0 1.408.154 1.88.461.471.293.832.681 1.084 1.165h.397a3.224 3.224 0 0 1 1.062-1.165c.457-.307 1.105-.461 1.946-.461.678 0 1.29.146 1.835.44.56.277 1.003.71 1.327 1.295.339.572.508 1.296.508 2.175V27.5h-2.786v-6.964c0-.6-.154-1.047-.464-1.34-.31-.308-.745-.462-1.305-.462-.633 0-1.128.206-1.482.616-.338.395-.508.966-.508 1.713V27.5h-2.786v-6.964c0-.6-.155-1.047-.464-1.34-.31-.308-.745-.462-1.306-.462-.633 0-1.127.206-1.481.616-.339.395-.509.966-.509 1.713V27.5h-2.786Z"/></g><defs><linearGradient id="b" x1="6.265" x2="31.142" y1="8.605" y2="8.605" gradientUnits="userSpaceOnUse"><stop stop-color="#64C2DB"/><stop offset=".307" stop-color="#7476ED"/><stop offset=".604" stop-color="#C994DF"/><stop offset="1" stop-color="#E56F8C"/></linearGradient><clipPath id="a"><path fill="#fff" d="M.796 0h150.068v40H.796z"/></clipPath></defs></svg>